<svg xmlns="http://www.w3.org/2000/svg" width="126" height="20" fill="black"><g clip-path="url(#logo_svg__a)"><path d="M3.185 17.467C1.3 15.782.358 13.291.358 10c0-3.29.96-5.781 2.885-7.467C5.164.848 7.793.003 11.127.003c1.384 0 2.607.1 3.671.305a11.62 11.62 0 0 1 3.056 1.034v5.339c-1.512-.755-3.23-1.133-5.15-1.133-1.693 0-2.944.337-3.749 1.01-.808.675-1.21 1.821-1.21 3.442 0 1.567.396 2.7 1.192 3.4.793.703 2.05 1.053 3.77 1.053 1.82 0 3.55-.446 5.19-1.335v5.585c-1.82.864-4.09 1.294-6.807 1.294-3.388 0-6.02-.844-7.905-2.53ZM19.538 9.997c0-3.265.884-5.747 2.653-7.448C23.961.848 26.626 0 30.191 0c3.59 0 6.273.85 8.058 2.549 1.78 1.698 2.671 4.183 2.671 7.448 0 6.664-3.577 9.997-10.73 9.997-7.102.003-10.652-3.33-10.652-9.997ZM32.75 13.4c.524-.703.786-1.837.786-3.4 0-1.538-.262-2.665-.786-3.38-.525-.716-1.379-1.073-2.56-1.073-1.152 0-1.988.36-2.5 1.073-.512.715-.768 1.842-.768 3.38 0 1.567.256 2.7.768 3.4.512.703 1.345 1.053 2.5 1.053 1.181 0 2.032-.353 2.56-1.053ZM42.603.404h6.767l.193 1.458c.744-.54 1.692-.986 2.845-1.336A12.25 12.25 0 0 1 55.985 0c2.282 0 3.947.594 5 1.782 1.051 1.188 1.576 3.02 1.576 5.505v12.305h-7.228V8.055c0-.864-.186-1.484-.558-1.862-.372-.38-.995-.565-1.867-.565-.537 0-1.089.128-1.653.385a4.557 4.557 0 0 0-1.424.992v12.587h-7.228V.404ZM62.582.405h7.536l3.461 11.252L77.041.405h7.536l-7.192 19.187H69.77L62.582.405ZM86.852 17.942c-2.171-1.714-3.187-4.69-3.187-7.903 0-3.13.808-5.708 2.654-7.49C88.164.767 90.976 0 94.526 0c3.266 0 5.834.796 7.71 2.388 1.872 1.593 2.811 3.766 2.811 6.517v3.362H91.302c.342.998.775 1.72 1.839 2.166 1.064.447 2.55.668 4.45.668 1.134 0 2.293-.093 3.47-.282.415-.068 1.098-.174 1.458-.254v4.665c-1.796.513-4.19.77-6.89.77-3.632-.003-6.605-.343-8.777-2.058Zm10.601-9.804c0-.95-1.04-2.995-3.129-2.995-1.884 0-3.129 2.013-3.129 2.995h6.258Z"></path><path d="M110.723 9.836 103.955.405h7.844l13.843 19.187h-7.92l-3.077-4.292-3.078 4.292h-7.883l7.039-9.756ZM117.548.405h7.808l-5.993 8.4-3.965-5.383 2.15-3.017Z"></path></g><defs><clipPath id="logo_svg__a"><path d="M0 0h126v20H0z"></path></clipPath></defs></svg>
